<?xml version="1.0" standalone="no"?><!DOCTYPE svg PUBLIC "-//W3C//DTD SVG 1.1//EN" "http://www.w3.org/Graphics/SVG/1.1/DTD/svg11.dtd"><svg t="1551276220713" class="icon" style="" viewBox="0 0 1755 1024" version="1.1" xmlns="http://www.w3.org/2000/svg" p-id="5788" xmlns:xlink="http://www.w3.org/1999/xlink" width="27.421875" height="16"><defs><style type="text/css"></style></defs><path d="M0 0h1755.488871v1024H0z" fill="#213095" p-id="5789"></path><path d="M877.744435 113.754328l-12.662819 39.25474h-41.36521l33.345424 24.270404-12.662819 39.465788 33.345424-24.270404 33.556472 24.270404-12.873867-39.465788 33.345425-24.270404H890.618302l-12.873867-39.25474zM890.618302 835.746084l-12.873867-39.25474-12.662819 39.25474h-41.36521l33.345424 24.481451-12.662819 39.25474 33.345424-24.270404 33.556472 24.270404-12.873867-39.25474 33.345425-24.481451H890.618302zM536.481451 533.73784L569.826876 558.008244l-12.66282-39.25474 33.345425-24.270404h-41.365211l-12.662819-39.254741-12.873866 39.254741h-41.365211l33.556472 24.270404-12.873867 39.25474 33.556472-24.270404zM707.00742 159.551525l-12.66282 39.25474h-41.36521l33.345425 24.270404-12.66282 39.465788 33.345425-24.481451 33.556471 24.481451-12.873866-39.465788 33.556471-24.270404h-41.36521l-12.873866-39.25474zM582.067601 284.491344l-12.662819 39.25474h-41.365211l33.345425 24.270404-12.66282 39.465787 33.345425-24.481451 33.556472 24.481451-12.873867-39.465787 33.556472-24.270404h-41.365211l-12.873866-39.25474zM594.941467 665.220115l-12.873866-39.465787-12.662819 39.465787h-41.365211l33.345425 24.270404-12.66282 39.254741 33.345425-24.270404 33.556472 24.270404-12.873867-39.254741 33.556472-24.270404h-41.365211zM719.881286 790.159934l-12.873866-39.465787-12.66282 39.465787h-41.36521l33.345425 24.270404-12.66282 39.25474 33.345425-24.270404 33.556471 24.270404-12.873866-39.25474 33.556471-24.270404h-41.36521zM1273.246496 494.4831h-41.36521l-12.662819-39.254741-12.873867 39.254741H1164.97939l33.345425 24.270404-12.66282 39.25474 33.556472-24.270404 33.345424 24.270404-12.873866-39.25474 33.556471-24.270404zM1048.481451 159.551525l-12.873866 39.25474h-41.154164l33.345425 24.270404-12.873867 39.465788 33.556472-24.481451 33.345425 24.481451-12.66282-39.465788 33.345425-24.270404h-41.365211l-12.662819-39.25474zM1152.738664 348.016488l-12.873866 39.465787 33.556472-24.481451 33.345424 24.481451-12.662819-39.465787 33.345424-24.270404H1186.084089l-12.662819-39.25474-12.873867 39.25474h-41.36521l33.556471 24.270404zM1186.084089 665.220115l-12.662819-39.465787-12.873867 39.465787h-41.36521l33.556471 24.270404-12.873866 39.254741 33.556472-24.270404 33.345424 24.270404-12.662819-39.254741 33.345424-24.270404H1186.084089zM1061.14427 790.159934l-12.662819-39.465787-12.873866 39.465787h-41.154164l33.345425 24.270404-12.873867 39.25474 33.556472-24.270404 33.345425 24.270404-12.66282-39.25474 33.345425-24.270404h-41.365211z" fill="#F5CB27" p-id="5790"></path></svg>