<?xml version="1.0" standalone="no"?><!DOCTYPE svg PUBLIC "-//W3C//DTD SVG 1.1//EN" "http://www.w3.org/Graphics/SVG/1.1/DTD/svg11.dtd"><svg t="1551439468790" class="icon" style="" viewBox="0 0 1024 1024" version="1.1" xmlns="http://www.w3.org/2000/svg" p-id="10297" xmlns:xlink="http://www.w3.org/1999/xlink" width="16" height="16"><defs><style type="text/css"></style></defs><path d="M369.792 853.312h455.104a28.416 28.416 0 0 0 0-56.832H369.792a28.416 28.416 0 0 0 0 56.832z" fill="#fb3333" p-id="10298"></path><path d="M796.416 369.792v170.688a28.416 28.416 0 0 0 56.832 0V369.792a28.416 28.416 0 0 0-56.832 0zM170.688 369.792v170.688a28.416 28.416 0 1 0 56.896-0.064V369.792a28.416 28.416 0 0 0-56.896 0z" fill="#d81e06" p-id="10299"></path><path d="M313.28 89.984C334.4 216.64 402.176 284.416 512 284.416s177.6-67.84 198.72-194.432a28.416 28.416 0 1 0-56.064-9.344C637.76 181.568 591.808 227.584 512 227.584S386.24 181.568 369.408 80.64a28.48 28.48 0 0 0-56.128 9.344z" fill="#fb3333" p-id="10300"></path><path d="M796.416 501.568c0-14.656 11.136-26.88 25.728-28.288 111.232-10.688 144.96-26.944 144.96-46.592 0-25.728-54.72-122.688-159.872-275.84a85.44 85.44 0 0 0-70.336-37.056H287.104a85.12 85.12 0 0 0-70.336 37.056C111.68 304 56.896 400.96 56.896 426.688c0 19.584 33.664 35.84 144.96 46.592a28.416 28.416 0 0 1 25.728 28.288v380.224c0 15.68 12.736 28.416 28.416 28.416h512a28.416 28.416 0 0 0 28.416-28.416V501.568z m56.896 380.224c0 47.104-38.208 85.312-85.312 85.312H256a85.312 85.312 0 0 1-85.312-85.312V527.104C50.688 512.832 0 484.608 0 426.688c0-43.264 55.168-140.928 169.856-308.032A142.208 142.208 0 0 1 287.104 56.896h449.792c46.848 0 90.752 23.104 117.248 61.76C968.832 285.696 1024 383.424 1024 426.688c0 57.92-50.688 86.144-170.688 100.416v354.688z" fill="#d81e06" p-id="10301"></path></svg>