<?xml version="1.0" standalone="no"?><!DOCTYPE svg PUBLIC "-//W3C//DTD SVG 1.1//EN" "http://www.w3.org/Graphics/SVG/1.1/DTD/svg11.dtd"><svg t="1551519733954" class="icon" style="" viewBox="0 0 1024 1024" version="1.1" xmlns="http://www.w3.org/2000/svg" p-id="8195" xmlns:xlink="http://www.w3.org/1999/xlink" width="16" height="16"><defs><style type="text/css"></style></defs><path d="M861.457067 348.842667c75.8784 76.936533 122.436267 165.376 122.436266 263.406933 0 272.418133-211.387733 402.090667-466.2272 402.090667h-9.4208c-254.805333 0-466.2272-129.672533-466.2272-402.090667 0-98.030933 46.592-186.4704 122.4704-263.3728a617.984 617.984 0 0 1 82.1248-70.382933 160.426667 160.426667 0 0 1 13.1072-9.045334c-40.277333-20.138667-67.003733-56.32-67.003733-98.030933 0-65.8432 64.887467-116.087467 141.824-116.087467 17.783467 0 33.9968 3.003733 48.64 8.533334 7.338667 2.525867 12.561067 5.0176 16.759467 7.509333 2.082133 1.024 7.850667-0.477867 9.9328-2.9696 5.768533-8.533333 14.677333-18.602667 27.204266-29.149867 21.845333-18.295467 47.377067-30.242133 75.8784-32.699733 28.535467 2.4576 54.0672 14.404267 75.8784 32.699733 12.561067 10.5472 21.469867 20.5824 27.204267 29.149867 2.116267 2.491733 7.850667 3.9936 9.966933 3.003733a86.357333 86.357333 0 0 1 16.725334-7.509333 136.874667 136.874667 0 0 1 48.674133-8.567467c76.9024 0 141.789867 50.244267 141.789867 116.087467 0 41.745067-26.692267 77.9264-66.9696 98.030933 4.1984 2.525867 8.362667 5.5296 13.073066 9.045334 28.2624 20.138667 55.978667 43.7248 82.158934 70.382933z m-213.538134 249.514666c20.753067 0 37.546667-16.657067 37.546667-37.1712 0-20.48-16.7936-37.137067-37.546667-37.137066h-44.270933l69.973333-69.256534a36.864 36.864 0 0 0 0-52.5312 37.853867 37.853867 0 0 0-53.077333 0l-107.588267 106.3936-107.554133-106.3936a37.888 37.888 0 0 0-53.111467 0 36.864 36.864 0 0 0 0 52.565334l69.973334 69.2224h-43.9296c-20.753067 0-37.546667 16.622933-37.546667 37.137066 0 20.514133 16.7936 37.137067 37.546667 37.137067h97.0752v37.137067h-75.093334c-20.718933 0-37.546667 16.622933-37.546666 37.137066 0 20.48 16.827733 37.137067 37.546666 37.137067h75.093334v57.1392c0 20.514133 16.827733 37.137067 37.546666 37.137067 20.753067 0 37.546667-16.622933 37.546667-37.137067v-57.1392h71.7824c20.753067 0 37.546667-16.622933 37.546667-37.137067 0-20.514133-16.7936-37.137067-37.546667-37.137066H550.570667v-37.137067h97.3824z" fill="#FAA207" p-id="8196"></path></svg>