<?xml version="1.0" standalone="no"?><!DOCTYPE svg PUBLIC "-//W3C//DTD SVG 1.1//EN" "http://www.w3.org/Graphics/SVG/1.1/DTD/svg11.dtd"><svg t="1551439309143" class="icon" style="" viewBox="0 0 1024 1024" version="1.1" xmlns="http://www.w3.org/2000/svg" p-id="8017" xmlns:xlink="http://www.w3.org/1999/xlink" width="16" height="16"><defs><style type="text/css"></style></defs><path d="M512 512m-506.648084 0a506.648084 506.648084 0 1 0 1013.296168 0 506.648084 506.648084 0 1 0-1013.296168 0Z" fill="#E21D42" p-id="8018"></path><path d="M295.941154 808.535811c-9.910956 0-17.641502-7.730546-17.641502-17.641502V233.898568c0-10.307395 8.721642-19.029036 19.029036-19.029036s19.029036 8.721642 19.029036 19.029036v556.995741c0 9.910956-7.334108 17.641502-17.245064 17.839721-1.189315 0.198219-2.37863-0.198219-3.171506-0.198219z" fill="#FFFFFF" p-id="8019"></path><path d="M397.429346 422.008517h-100.695316c-2.973287 0-5.351916-2.37863-5.351916-5.351916v-178.198994c0.198219-2.973287 2.775068-4.955478 5.748354-4.955478h100.497097c1.783972 0 3.171506 0.991096 4.162601 2.37863s0.991096 3.171506 0 4.955478l-9.514518 22.795199 8.721642 19.227255c0.594657 1.387534 0.594657 3.171506 0 4.360821l-8.721642 19.029036 8.721642 19.029036c0.594657 1.387534 0.594657 3.171506 0 4.360821l-8.721642 19.029036 8.721642 19.029036c0.594657 1.387534 0.594657 3.171506 0 4.360821l-8.721642 19.227255 9.11808 22.795199c0.991096 1.387534 0.991096 3.171506 0 4.955478-0.991096 2.576849-2.37863 2.973287-3.964382 2.973287z m-95.541619-10.703833h87.612854l-6.93767-17.641502c-0.594657-1.387534-0.594657-2.973287 0-4.162601l9.910957-19.029036-8.721642-19.029036c-0.594657-1.387534-0.594657-3.171506 0-4.360821l8.721642-19.029036-8.721642-19.029036c-0.594657-1.387534-0.594657-3.171506 0-4.360821l8.721642-19.227255-8.721642-19.029036c-0.594657-1.387534-0.594657-2.973287 0-4.162602l6.541231-17.641502h-87.612853l-0.792877 166.702284z" fill="#FFFFFF" p-id="8020"></path><path d="M388.113047 269.181572h-90.58614c-2.973287 0-5.351916-2.37863-5.351917-5.351917s2.37863-5.351916 5.351917-5.351916h90.58614c2.973287 0 5.351916 2.37863 5.351916 5.351916-0.198219 2.973287-2.37863 5.351916-5.351916 5.351917z m9.514518 21.407665h-100.100658c-2.973287 0-5.351916-2.37863-5.351917-5.351916s2.37863-5.351916 5.351917-5.351916h100.497096c2.973287 0 5.351916 2.37863 5.351916 5.351916-0.198219 2.973287-2.775068 5.351916-5.748354 5.351916z m-9.514518 21.011228h-91.180798c-2.973287 0-5.351916-2.37863-5.351916-5.351917s2.37863-5.351916 5.351916-5.351916h91.180798c2.973287 0 5.351916 2.37863 5.351916 5.351916 0 2.973287-2.37863 5.351916-5.351916 5.351917z m9.316299 21.804103h-100.695316c-2.973287 0-5.351916-2.37863-5.351916-5.351916s2.37863-5.351916 5.351916-5.351916h100.497097c2.973287 0 5.351916 2.37863 5.351916 5.351916 0.198219 2.973287-2.18041 5.351916-5.153697 5.351916z m-10.109176 21.209447h-90.58614c-2.973287 0-5.351916-2.37863-5.351916-5.351917s2.37863-5.351916 5.351916-5.351916h90.58614c2.973287 0 5.351916 2.37863 5.351917 5.351916s-2.37863 5.351916-5.351917 5.351917z m0 42.815331h-90.58614c-2.973287 0-5.351916-2.37863-5.351916-5.351917s2.37863-5.351916 5.351916-5.351916h90.58614c2.973287 0 5.351916 2.37863 5.351917 5.351916s-2.37863 5.351916-5.351917 5.351917z m10.109176-21.407666h-100.695316c-2.973287 0-5.351916-2.37863-5.351916-5.351916s2.37863-5.351916 5.351916-5.351917h100.497097c2.973287 0 5.351916 2.37863 5.351916 5.351917 0.198219 3.171506-2.18041 5.351916-5.153697 5.351916z m180.577623-159.368176h38.058072c18.03794 0 32.706156 14.668215 32.706155 32.706155v78.494774h-104.461479v-77.701897c-0.198219-18.03794 14.271777-32.904375 32.507937-32.904375 0.594657-0.594657 0.792877-0.594657 1.189315-0.594657z m164.323654 543.516841H452.336043l-3.567944 48.761904h297.130469l-3.567945-48.761904z m-21.407665-193.858305c-4.955478-52.924506-6.541231-106.44367-4.955478-159.368176-0.198219-38.058072-31.120403-68.583817-69.178475-68.583818h-99.307782c-38.058072 0.198219-68.583817 30.723964-68.782036 68.583818 1.387534 52.924506 0 105.849013-4.955478 158.5753-8.325203 113.975997-19.821913 179.190089-19.821913 179.190089h287.81417c-0.198219-0.396438-12.487805-66.205188-20.813008-178.397213z" fill="#FFFFFF" p-id="8021"></path></svg>