<?xml version="1.0" standalone="no"?><!DOCTYPE svg PUBLIC "-//W3C//DTD SVG 1.1//EN" "http://www.w3.org/Graphics/SVG/1.1/DTD/svg11.dtd"><svg t="1551519638231" class="icon" style="" viewBox="0 0 1024 1024" version="1.1" xmlns="http://www.w3.org/2000/svg" p-id="6150" xmlns:xlink="http://www.w3.org/1999/xlink" width="16" height="16"><defs><style type="text/css"></style></defs><path d="M512 992c-265.099 0-480-214.901-480-480s214.901-480 480-480c265.099 0 480 214.901 480 480 0 265.099-214.901 480-480 480zM536.505 162.56c-205.655 0-372.948 146.793-372.948 327.233 0 5.433 0.151 10.825 0.455 16.193 0.745 13.844 12.291 24.567 26.084 24.567 0.48 0 0.96-0.025 1.44-0.038 14.425-0.783 25.478-13.023 24.695-27.348-0.24-4.433-0.367-8.88-0.367-13.377 0-151.793 143.836-275.292 320.64-275.292 14.438 0 26.148-11.633 26.148-25.971 0-14.349-11.709-25.971-26.148-25.971zM606.447 436.88c0 0 32.842-43.011 32.842-43.011-23.367-22.32-53.545-36.909-88.812-42.884 0 0 0-52.548 0-52.548 0 0-11.217 0-11.217 0 0 0 0-1.163 0-1.163 0 0-39.828 0-39.828 0 0 0 0 51.108 0 51.108-64.207 5.444-105.019 45.487-105.019 95.913 0 64.269 53.76 82.572 105.019 95.433 0 0 0 95.899 0 95.899-35.836-5.433-64.699-24.228-83.116-44.487 0 0-32.855 44.993-32.855 44.993 26.388 27.183 64.713 47.457 115.971 51.411 0 0 0 47.709 0 47.709 0 0 24.316 0 24.316 0 0 0 0 0.139 0 0.139 0 0 26.727 0 26.727 0 0 0 0-49.629 0-49.629 66.455-9.877 96.783-51.865 96.783-99.575 0-61.477-48.429-82.409-96.783-95.785 0 0 0-85.567 0-85.567 20.4 5.887 39.979 16.169 55.971 32.047zM454.148 439.849c0-21.751 17.419-37.073 45.284-40.535 0 0 0 77.621 0 77.621-26.375-7.92-45.284-17.811-45.284-37.087zM587.524 591.629c0 17.015-10.901 34.763-37.049 42.101 0 0 0-79.844 0-79.844 21.637 7.971 37.049 18.657 37.049 37.743z" fill="#4888E2" p-id="6151"></path></svg>