<?xml version="1.0" standalone="no"?><!DOCTYPE svg PUBLIC "-//W3C//DTD SVG 1.1//EN" "http://www.w3.org/Graphics/SVG/1.1/DTD/svg11.dtd"><svg t="1551439126248" class="icon" style="" viewBox="0 0 1024 1024" version="1.1" xmlns="http://www.w3.org/2000/svg" p-id="2650" xmlns:xlink="http://www.w3.org/1999/xlink" width="16" height="16"><defs><style type="text/css"></style></defs><path d="M371.204 1016.74h0.013c-38.205 0-73.247-8.946-104.181-26.622-33.042-18.876-58.819-47.965-80.651-81.439-2.911-5.239-3.202-5.822-6.14-11.197-32.954-60.307 4.069-155.756 94.219-226.749 49.137-38.683 103.458-60.863 149.055-60.863 33.888 0 61.318 12.427 77.926 35.152 3.555 2.327 9.488 5.365 14.353 5.365 1.396 0 4.301 0 8.652-4.926 0.285-0.294 0.564-0.59 0.849-0.909 25.382-32.921 48.843-68.368 69.779-105.382 19.231-34.023 36.253-69.202 50.606-104.646 1.986-11.203 0.492-16.791-0.785-18.362-0.918-1.129-3.651-1.863-3.676-1.863-24.845-0.587-47.041-11.765-64.702-32.308-33.241-38.681-47.373-106.684-37.788-181.915 14.683-115.337 77.94-202.309 147.142-202.309 0.22 0 1.74 0.023 1.97 0.023 3.286 0.074 6.496 0.393 9.646 0.883 42.48-1.888 81.557 6.961 115.52 26.351 157.204 89.818 160.513 372.116 7.549 642.669-118.057 208.78-298.635 349.045-449.356 349.045zM423.517 667.18c-32.494 0-74.951 18.163-113.597 48.585-67.387 53.047-97.12 122.779-81.914 151.291 2.329 4.366 3.961 7.102 5.239 9.314 15.136 26.196 37.783 50.013 62.223 63.987 22.16 12.675 47.643 19.071 75.734 19.071 128.683 0 292.934-131.562 399.457-319.949 132.655-234.617 139.029-493.211 13.91-564.69-25.102-14.316-54.714-20.64-87.084-18.704-2.377 0.122-4.755-0.022-7.083-0.465-1.299-0.269-2.624-0.49-3.973-0.54-34.035 0-79.753 65.108-90.845 152.254-7.343 57.606 2.231 111.51 24.39 137.299 10.393 12.085 19.205 12.282 22.097 12.355 2.49 0 29.33 0.834 47.372 23.116 13.765 16.989 17.774 40.006 11.914 68.368-0.345 1.666-0.835 3.31-1.47 4.903-15.519 38.608-34 76.972-54.937 114.011-22.846 40.397-48.548 79.055-76.407 114.916-1.236 1.595-2.622 3.040-4.118 4.316-13.555 13.802-30.286 21.079-48.635 21.079-29.097 0-51.673-18.826-54.151-20.985-2.145-1.861-4.020-4.043-5.527-6.471-6.751-10.81-21.457-13.066-32.598-13.066zM333.111 474.161c-13.691 0-25.851-9.781-28.412-23.727-4.842-26.401 0.895-53.121 16.142-75.233 15.26-22.087 38.206-36.94 64.617-41.77 15.739-2.868 30.777 7.525 33.657 23.239 2.883 15.713-7.525 30.787-23.237 33.654-11.214 2.060-20.96 8.359-27.43 17.748-6.484 9.363-8.91 20.714-6.864 31.941 2.894 15.713-7.513 30.764-23.227 33.657-1.753 0.318-3.518 0.492-5.245 0.492zM235.387 472.075c-13.691 0-25.849-9.756-28.398-23.702-17.577-95.801 46.062-188.018 141.859-205.57 15.664-2.866 30.777 7.526 33.658 23.237 2.88 15.689-7.526 30.768-23.227 33.634-64.422 11.815-107.22 73.836-95.406 138.256 2.881 15.715-7.526 30.788-23.239 33.658-1.753 0.319-3.516 0.49-5.246 0.49zM123.447 503.649c-13.69 0-25.85-9.753-28.411-23.702-14.61-79.692 2.684-160.294 48.707-226.969 46.012-66.677 115.238-111.439 194.931-126.049 15.677-2.867 30.765 7.525 33.657 23.238 2.881 15.714-7.525 30.765-23.238 33.658-64.482 11.812-120.507 48.045-157.757 102-37.235 53.978-51.234 119.209-39.419 183.703 2.881 15.689-7.511 30.765-23.226 33.659-1.764 0.319-3.517 0.463-5.246 0.463z" fill="#288ddb" p-id="2651"></path></svg>