<?xml version="1.0" standalone="no"?><!DOCTYPE svg PUBLIC "-//W3C//DTD SVG 1.1//EN" "http://www.w3.org/Graphics/SVG/1.1/DTD/svg11.dtd"><svg t="1551439210821" class="icon" style="" viewBox="0 0 1182 1024" version="1.1" xmlns="http://www.w3.org/2000/svg" p-id="5816" xmlns:xlink="http://www.w3.org/1999/xlink" width="18.46875" height="16"><defs><style type="text/css"></style></defs><path d="M0 0h152.4736c-27.136 1.8944-51.9168 22.784-56.6272 49.8176-2.304 15.616-0.9216 31.488-1.1776 47.2064 0.0512 288.512 0 577.024 0.0512 865.536-28.6208-0.1536-57.2416 0.4096-85.8624-0.4096-11.1104 17.8688-12.6976 45.4144 1.6384 61.8496H0V0zM749.056 0H1182.72v1024h-15.1552c5.9392-3.328 13.568-7.424 12.4928-15.616-0.768-14.7456 5.4784-34.6112-8.2432-45.0048-27.8528-2.1504-55.8592-0.1024-83.8144-0.8704-0.1536-226.2016 0.3072-452.4544-0.2048-678.656 1.6384-33.0752-24.9856-65.8944-59.0848-66.0992-73.6768-0.512-147.3536 0.1024-221.0304-0.2048-0.0512-52.1216 0.1024-104.192 0.0512-156.2624C808.3456 29.3376 780.7488 1.2288 749.056 0zM156.2112 61.44c196.6592 0 393.3184-0.0512 590.0288 0.0512-0.1536 200.6528 0.2048 401.3568-0.2048 602.0608-41.1648-0.1536-82.3808-0.1024-123.5968-0.0512 3.6352-33.6896-19.1488-69.5296-54.3232-73.0624-75.1104-0.9728-150.272 0-225.4336-0.4096-34.2016-1.4848-63.488 30.1056-62.3104 63.7952-41.4208 0.4608-82.8416 0.256-124.3136 0.2048 0.256-197.5296 0.0512-395.0592 0.1536-592.5888m111.2064 124.5184c-8.0896-0.1024-17.1008 4.7616-17.3056 13.824-0.768 13.1072-2.2528 26.7776 1.3824 39.5776 2.7648 8.2944 12.7488 8.96 20.0704 9.0112 119.5008 0 239.0016-0.1024 358.5536 0.0512 8.6016 0.4096 21.248-2.048 22.1696-12.6464 1.1264-13.4144 1.3824-27.0848-0.5632-40.3968-4.4544-10.496-17.408-9.5232-26.7264-9.8816-119.1936 0.4608-238.3872-0.4608-357.5808 0.4608M257.3824 374.272c-10.5984 6.0928-7.3728 19.8656-8.0896 30.0032 0.0512 10.6496-1.3312 27.8016 13.0048 29.3376 125.7472 0.5632 251.5456 0.512 377.2416 0.0512 16.7936-1.4336 12.9536-22.4768 13.568-34.304 1.7408-11.9296-2.7136-29.2352-18.2784-26.7776-117.8624-0.3584-235.7248 0.1536-353.5872-0.256-7.936 0.3072-16.1792-0.768-23.8592 1.9456z" fill="#FFFFFF" p-id="5817"></path><path d="M807.7312 279.0912c72.4992-0.0512 144.9984-0.0512 217.4976 0 0.0512 227.7888 0 455.6288 0 683.4688h-28.4672c0-148.1216 0.0512-296.2944 0-444.416-8.4992-6.7072-16.5376-16.4864-28.6208-15.0016-53.504 0.4608-107.0592-2.7136-160.512 0.2048 0.1536-74.752 0.0512-149.504 0.1024-224.256zM343.0912 651.52c72.0384 0.0512 144.128 0 216.2176 0 0.0512 103.68 0 207.36 0 311.04H343.04c0-103.68-0.0512-207.36 0.0512-311.04z" fill="#FFFFFF" p-id="5818"></path><path d="M152.4736 0H749.056c31.6928 1.2288 59.2896 29.3376 58.6752 61.2864 0.0512 52.0704-0.1024 104.1408-0.0512 156.2624 73.6768 0.3072 147.3536-0.3072 221.0304 0.2048 34.0992 0.2048 60.7232 33.024 59.0848 66.0992 0.512 226.2016 0.0512 452.4544 0.2048 678.656 27.9552 0.768 55.9616-1.28 83.8144 0.8704 13.7216 10.3936 7.4752 30.2592 8.2432 45.0048 1.0752 8.192-6.5536 12.288-12.4928 15.616H10.496c-14.336-16.4352-12.7488-43.9808-1.6384-61.8496 28.6208 0.8192 57.2416 0.256 85.8624 0.4096-0.0512-288.512 0-577.024-0.0512-865.536 0.256-15.7184-1.1264-31.5904 1.1776-47.2064C100.5568 22.784 125.3376 1.8944 152.4736 0m3.7376 61.44c-0.1024 197.5296 0.1024 395.0592-0.1536 592.5888v9.6256c0.256 99.6352 0 199.2704 0.1536 298.9056 37.5808 0.0512 75.2128-0.0512 112.8448 0h11.9808c-0.4096-102.912-0.2048-205.824-0.6656-308.736-1.1776-33.6896 28.1088-65.28 62.3104-63.7952 75.1616 0.4096 150.3232-0.5632 225.4336 0.4096 35.1744 3.5328 57.9584 39.3728 54.3232 73.0624-0.8192 99.6864-0.1536 199.3728-0.3072 299.008 41.3696 0.0512 82.7392 0.1024 124.1088 0-0.1536-99.6352 0.256-199.3216-0.2048-298.9568 0.4096-200.704 0.0512-401.408 0.2048-602.0608-196.7104-0.1024-393.3696-0.0512-590.0288-0.0512m651.52 217.6512c-0.0512 74.752 0.0512 149.504-0.1024 224.256 0.256 153.088 0.0512 306.176 0.1536 459.2128l3.6352-0.0512c56.2688 0.1024 112.5888 0.0512 168.8576 0.0512h44.9536c0-227.84 0.0512-455.68 0-683.4688-72.4992-0.0512-144.9984-0.0512-217.4976 0m-464.64 372.4288C342.9888 755.2 343.04 858.88 343.04 962.56h216.2688c0-103.68 0.0512-207.36 0-311.04-72.0896 0-144.1792 0.0512-216.2176 0z" fill="#271A60" p-id="5819"></path><path d="M267.4176 185.9584c119.1936-0.9216 238.3872 0 357.5808-0.4608 9.3184 0.3584 22.272-0.6144 26.7264 9.8816 1.9456 13.312 1.6896 26.9824 0.5632 40.3968-0.9216 10.5984-13.568 13.056-22.1696 12.6464-119.552-0.1536-239.0528-0.0512-358.5536-0.0512-7.3216-0.0512-17.3056-0.7168-20.0704-9.0112-3.6352-12.8-2.1504-26.4704-1.3824-39.5776 0.2048-9.0624 9.216-13.9264 17.3056-13.824zM257.3824 374.272c7.68-2.7136 15.9232-1.6384 23.8592-1.9456 117.8624 0.4096 235.7248-0.1024 353.5872 0.256 15.5648-2.4576 20.0192 14.848 18.2784 26.7776-0.6144 11.8272 3.2256 32.8704-13.568 34.304-125.696 0.4608-251.4944 0.512-377.2416-0.0512-14.336-1.536-12.9536-18.688-13.0048-29.3376 0.7168-10.1376-2.5088-23.9104 8.0896-30.0032z" fill="#271A60" p-id="5820"></path><path d="M807.6288 503.3472c53.4528-2.9184 107.008 0.256 160.512-0.2048 12.0832-1.4848 20.1216 8.2944 28.6208 15.0016 0.0512 148.1216 0 296.2944 0 444.416h-10.8032c-0.1536-129.6896 0-259.3792-0.0512-389.0688-0.2048-18.0736 1.6384-36.3008-1.024-54.272-5.5296-6.0416-14.6432-4.4544-21.9136-5.376-36.0448-0.1536-72.0896-0.0512-108.1344-1.024-14.6944 0.256-30.6176-2.2528-43.9808 5.2736 1.28 148.1216 0.1536 296.2944 0.5632 444.416l-3.6352 0.0512c-0.1024-153.0368 0.1024-306.1248-0.1536-459.2128z" fill="#91EBFF" p-id="5821"></path><path d="M810.8544 518.0928c13.3632-7.5264 29.2864-5.0176 43.9808-5.2736 36.0448 0.9728 72.0896 0.8704 108.1344 1.024 7.2704 0.9216 16.384-0.6656 21.9136 5.376 2.6624 17.9712 0.8192 36.1984 1.024 54.272 0.0512 129.6896-0.1024 259.3792 0.0512 389.0688h-5.6832c0.512-147.4048-0.4096-294.7584 0.512-442.112-56.6272-2.4064-113.3568 0.6144-169.9328-2.3552z" fill="#42DDFF" p-id="5822"></path><path d="M811.4176 962.5088c-0.4096-148.1216 0.7168-296.2944-0.5632-444.416 56.576 2.9696 113.3056-0.0512 169.9328 2.3552-0.9216 147.3536 0 294.7072-0.512 442.112-56.2688 0-112.5888 0.0512-168.8576-0.0512zM156.0576 663.6544c39.6288-0.256 79.2064 0.4608 118.8352-0.6656 8.192 56.8832-1.6384 114.3808-0.6656 171.52 1.4336 42.8544-6.5024 85.248-5.1712 128.0512-37.632-0.0512-75.264 0.0512-112.8448 0-0.1536-99.6352 0.1024-199.2704-0.1536-298.9056zM622.4384 663.5008c41.216-0.0512 82.432-0.1024 123.5968 0.0512 0.4608 99.6352 0.0512 199.3216 0.2048 298.9568-41.3696 0.1024-82.7392 0.0512-124.1088 0 0.1536-99.6352-0.512-199.3216 0.3072-299.008z" fill="#00D2FF" p-id="5823"></path><path d="M156.0576 654.0288c41.472 0.0512 82.8928 0.256 124.3136-0.2048 0.4608 102.912 0.256 205.824 0.6656 308.736h-11.9808c-1.3312-42.8032 6.6048-85.1968 5.1712-128.0512-0.9728-57.1392 8.8576-114.6368 0.6656-171.52-39.6288 1.1264-79.2064 0.4096-118.8352 0.6656v-9.6256z" fill="#82D3ED" p-id="5824"></path></svg>