<?xml version="1.0" standalone="no"?><!DOCTYPE svg PUBLIC "-//W3C//DTD SVG 1.1//EN" "http://www.w3.org/Graphics/SVG/1.1/DTD/svg11.dtd"><svg t="1551519568494" class="icon" style="" viewBox="0 0 1024 1024" version="1.1" xmlns="http://www.w3.org/2000/svg" p-id="4594" xmlns:xlink="http://www.w3.org/1999/xlink" width="16" height="16"><defs><style type="text/css"></style></defs><path d="M332.8 462.336v-131.072h-25.6a51.2 51.2 0 0 0-51.2 51.2v80.128zM640 257.536H384v204.8h256z m-82.944 148.224a39.68 39.68 0 0 1-17.152 14.592 55.04 55.04 0 0 1-14.592 4.096v19.456h-25.6v-20.224a57.856 57.856 0 0 1-12.032-3.584 41.728 41.728 0 0 1-18.944-15.616 44.288 44.288 0 0 1-7.936-23.04v-3.84l22.528-2.048v4.096a28.928 28.928 0 0 0 4.096 12.8 22.784 22.784 0 0 0 10.24 7.68 44.544 44.544 0 0 0 30.72 0 17.92 17.92 0 0 0 8.448-5.888 12.8 12.8 0 0 0 2.56-7.68 11.264 11.264 0 0 0-2.304-7.168 19.968 19.968 0 0 0-8.96-5.632 190.208 190.208 0 0 0-20.48-5.632 109.056 109.056 0 0 1-23.808-7.68 36.096 36.096 0 0 1-14.08-12.544 31.232 31.232 0 0 1-4.864-16.896 34.304 34.304 0 0 1 5.632-18.944 35.584 35.584 0 0 1 16.64-13.312 55.552 55.552 0 0 1 11.008-3.072v-20.224h25.6v20.48a56.064 56.064 0 0 1 10.752 3.072 37.632 37.632 0 0 1 17.152 14.08 39.936 39.936 0 0 1 6.4 20.736v4.096l-23.04 1.792v-4.096a19.968 19.968 0 0 0-6.656-14.08 28.16 28.16 0 0 0-17.92-4.864 29.44 29.44 0 0 0-18.176 4.352 11.52 11.52 0 0 0-4.864 9.216 9.216 9.216 0 0 0 3.328 7.424 55.808 55.808 0 0 0 21.76 7.424 157.184 157.184 0 0 1 26.88 7.68 39.936 39.936 0 0 1 16.896 13.568 33.536 33.536 0 0 1 5.632 19.2 36.352 36.352 0 0 1-4.864 20.48zM665.6 513.536H256v201.728a51.2 51.2 0 0 0 51.2 51.2h409.6a51.2 51.2 0 0 0 51.2-51.2v-201.728z" fill="#FF4D4D" p-id="4595"></path><path d="M512 0a512 512 0 1 0 512 512A512 512 0 0 0 512 0z m307.2 715.264a102.4 102.4 0 0 1-102.4 102.4H307.2a102.4 102.4 0 0 1-102.4-102.4v-332.8a102.4 102.4 0 0 1 102.4-102.4h25.6V231.936a25.6 25.6 0 0 1 25.6-25.6h307.2a25.6 25.6 0 0 1 25.6 25.6v48.128h25.6a102.4 102.4 0 0 1 102.4 102.4z" fill="#FF4D4D" p-id="4596"></path><path d="M768 462.336v-79.872a51.2 51.2 0 0 0-51.2-51.2h-25.6v131.328z" fill="#FF4D4D" p-id="4597"></path></svg>