<?xml version="1.0" standalone="no"?><!DOCTYPE svg PUBLIC "-//W3C//DTD SVG 1.1//EN" "http://www.w3.org/Graphics/SVG/1.1/DTD/svg11.dtd"><svg t="1551439008758" class="icon" style="" viewBox="0 0 1024 1024" version="1.1" xmlns="http://www.w3.org/2000/svg" p-id="2809" xmlns:xlink="http://www.w3.org/1999/xlink" width="16" height="16"><defs><style type="text/css"></style></defs><path d="M758.442 254.923v-184.211h-495.037v184.211h-135.147v598.191c0 55.039 44.587 99.517 99.517 99.517h566.188c55.039 0 99.522-44.587 99.522-99.517v-598.191h-135.047zM354.816 162.124h312.213v92.799h-312.213v-92.799zM510.977 775.46s-198.721-85.333-198.721-244.482c0-57.066 38.399-98.878 95.465-98.878 47.148 0 77.764 47.251 92.695 77.759 1.869 3.819 5.726 6.402 10.187 6.402 0.058 0 0.114 0 0.172-0.001 4.361 0 8.418-2.561 10.231-6.613 14.183-30.611 44.051-77.654 93.225-77.654 57.071 0 95.465 41.812 95.465 98.883 0 159.362-198.716 244.586-198.716 244.586z" fill="#d4237a" p-id="2810"></path></svg>