<?xml version="1.0" standalone="no"?><!DOCTYPE svg PUBLIC "-//W3C//DTD SVG 1.1//EN" "http://www.w3.org/Graphics/SVG/1.1/DTD/svg11.dtd"><svg t="1551439376754" class="icon" style="" viewBox="0 0 1365 1024" version="1.1" xmlns="http://www.w3.org/2000/svg" p-id="8781" xmlns:xlink="http://www.w3.org/1999/xlink" width="21.328125" height="16"><defs><style type="text/css"></style></defs><path d="M1016.552727 46.545455c75.822545 0 137.293576 65.675636 137.293576 146.649212 0 80.989091-61.47103 146.649212-137.293576 146.649212-75.80703 0-137.293576-65.660121-137.293575-146.649212C879.259152 112.221091 940.745697 46.545455 1016.552727 46.545455zM139.776 464.182303l193.458424-6.376727 28.082424 31.883636 255.782788 210.959515c7.19903 5.942303-0.201697 32.566303-7.509333 37.546667l-90.468848 61.626182c-13.529212 9.200485-44.947394 1.660121-56.73891-8.378182L150.962424 525.777455c-11.326061-9.69697-9.526303-46.204121-11.186424-61.595152z m289.978182-322.296242c-33.947152 0.465455-17.88897 31.107879-1.256727 45.335272l244.82909 210.013091-127.239757 95.340606c-22.093576 16.523636-3.273697 63.053576 13.312 76.908606C722.183758 705.442909 884.968727 841.464242 1047.753697 977.454545H1241.212121c-5.60097-24.281212-3.009939-55.932121-22.434909-71.974787L804.38303 563.013818l136.005818-111.771151c14.661818-12.070788 8.486788-44.125091-5.15103-55.901091L639.00703 139.000242c-69.740606 0.868848-139.496727 1.923879-209.252848 2.885819z" fill="#D81E06" p-id="8782"></path></svg>