<?xml version="1.0" standalone="no"?><!DOCTYPE svg PUBLIC "-//W3C//DTD SVG 1.1//EN" "http://www.w3.org/Graphics/SVG/1.1/DTD/svg11.dtd"><svg t="1551439258763" class="icon" style="" viewBox="0 0 1263 1024" version="1.1" xmlns="http://www.w3.org/2000/svg" p-id="7247" xmlns:xlink="http://www.w3.org/1999/xlink" width="19.734375" height="16"><defs><style type="text/css"></style></defs><path d="M819.264 243.528a74.099 74.099 0 0 1-113.777-92.252L594.785 62 486.959 186.689a15.177 15.177 0 0 1 1.488 20.434 15.375 15.375 0 0 1-21.426 2.579L83.333 653.304 199.59 747.34a74.099 74.099 0 0 1 113.778 92.053L424.07 928.67l380.81-440.13-7.34-5.753a15.375 15.375 0 1 1 19.145-24.005l8.332 6.547 110.405-127.764zM512.155 597.655l-36.9 74.397-39.679-69.437-77.967-9.92 53.07-63.187-11.408-80.646 72.313 29.759 71.024-39.678-8.332 81.836 54.954 56.343z m48.507-331.312a15.375 15.375 0 0 1-21.625 2.48l-29.759-23.41a15.375 15.375 0 1 1 19.145-24.105l29.759 23.41a15.375 15.375 0 0 1 2.38 21.724z m72.214 59.517a15.375 15.375 0 0 1-21.625 2.48l-29.758-23.41a15.375 15.375 0 1 1 19.144-24.105l29.759 23.41a15.375 15.375 0 0 1 2.38 21.526z m72.115 59.517a15.375 15.375 0 0 1-21.625 2.48l-29.758-23.41a15.375 15.375 0 1 1 18.649-24.7l29.758 23.41a15.375 15.375 0 0 1 2.877 21.922z m72.214 59.517a15.375 15.375 0 0 1-21.624 2.48l-29.759-23.41a15.375 15.375 0 0 1 18.649-24.7l29.758 23.41a15.375 15.375 0 0 1 2.877 21.724z" fill="#d81e06" p-id="7248"></path><path d="M1129.448 510.86a76.38 76.38 0 0 1-62.79-137.089l-60.807-133.22-76.678 32.14 66.758 55.847-93.045 109.115a15.772 15.772 0 0 1 7.44 7.44l17.061 35.412a15.871 15.871 0 1 1-28.667 13.392l-15.872-32.834-124.986 145.321-18.847 29.76 25.295 76.975-80.646-16.268-8.332 6.249L450.356 962l553.51-231.621-4.165-8.63a15.871 15.871 0 1 1 28.766-13.392l4.762 9.92 160.498-67.155z m-191.447 70.527l-17.062-35.313a15.871 15.871 0 0 1 28.668-13.392l17.062 35.215A15.871 15.871 0 1 1 938 581.288z m60.51 95.625a15.871 15.871 0 0 1-21.03-7.638l-17.062-35.413a15.871 15.871 0 0 1 28.668-13.392l16.764 35.314a15.871 15.871 0 0 1-7.34 21.129z" fill="#ea9518" p-id="7249"></path></svg>