<?xml version="1.0" standalone="no"?><!DOCTYPE svg PUBLIC "-//W3C//DTD SVG 1.1//EN" "http://www.w3.org/Graphics/SVG/1.1/DTD/svg11.dtd"><svg t="1551439040926" class="icon" style="" viewBox="0 0 1024 1024" version="1.1" xmlns="http://www.w3.org/2000/svg" p-id="3565" xmlns:xlink="http://www.w3.org/1999/xlink" width="16" height="16"><defs><style type="text/css"></style></defs><path d="M135.6 99.92m34.64 0l692.08 0q34.64 0 34.64 34.64l0 656.88q0 34.64-34.64 34.64l-692.08 0q-34.64 0-34.64-34.64l0-656.88q0-34.64 34.64-34.64Z" fill="#A4E3FF" p-id="3566"></path><path d="M258.8 859.12m18.64 0l108.24 0q18.64 0 18.64 18.64l0 36.24q0 18.64-18.64 18.64l-108.24 0q-18.64 0-18.64-18.64l0-36.24q0-18.64 18.64-18.64Z" fill="#8DE1FF" p-id="3567"></path><path d="M613.92 859.12m18.64 0l108.24 0q18.64 0 18.64 18.64l0 36.24q0 18.64-18.64 18.64l-108.24 0q-18.64 0-18.64-18.64l0-36.24q0-18.64 18.64-18.64Z" fill="#8DE1FF" p-id="3568"></path><path d="M763.76 52.64L268.8 52A164.16 164.16 0 0 0 104 214.96v498.24a163.68 163.68 0 0 0 130.08 159.28v2.8a105.92 105.92 0 0 0 211.76 1.12h141.2a105.92 105.92 0 0 0 211.76-1.28v-2.16a163.68 163.68 0 0 0 130.08-159.28V216A164.16 164.16 0 0 0 763.76 52.64z m-424 878a55.44 55.44 0 0 1-55.36-54.48h110.72a55.44 55.44 0 0 1-55.36 54.32z m352.96 0a55.44 55.44 0 0 1-55.36-54h110.72a55.44 55.44 0 0 1-55.36 53.84z m185.44-216.8a113.6 113.6 0 0 1-114.4 112.48l-494.96-0.64a113.6 113.6 0 0 1-114.4-112.48V562.96h723.84z m0-201.36H154.4V214.96a113.6 113.6 0 0 1 114.4-112.48l494.96 0.64A113.6 113.6 0 0 1 878.24 216z m0 0" fill="#333333" p-id="3569"></path><path d="M638.4 711.28a64 64 0 1 0 32-55.28 64 64 0 0 0-32 55.28z m0 0M266.56 711.28a64 64 0 1 0 32-55.28 64 64 0 0 0-32 55.28z m0 0M733.04 180.72H299.52a25.28 25.28 0 1 0 0 50.48h433.52a25.28 25.28 0 1 0 0-50.48z m0 0" fill="#333333" p-id="3570"></path></svg>