<?xml version="1.0" standalone="no"?><!DOCTYPE svg PUBLIC "-//W3C//DTD SVG 1.1//EN" "http://www.w3.org/Graphics/SVG/1.1/DTD/svg11.dtd"><svg t="1551439096148" class="icon" style="" viewBox="0 0 1024 1024" version="1.1" xmlns="http://www.w3.org/2000/svg" p-id="1850" xmlns:xlink="http://www.w3.org/1999/xlink" width="16" height="16"><defs><style type="text/css"></style></defs><path d="M244.5 912.4c63-109.2 157.9-115.8 257-91.8 57.9 14 110.9 47.1 168.2 64.6 36.2 11.1 76.3 9.4 117.6-7.2-92.2-73-181.3-150.5-277.6-217.6-67.5-47-142.3-86.6-218.7-117.2C187.8 502 112.4 404.9 118.1 299.9 124.4 184.4 215.8 84.3 330.9 67 437.5 51 562 108.8 583.7 216 614.3 366.8 724.5 457.1 805 570.5c34.6 48.7 73.9 94.2 101.2 128.7-17.5 63.6-29.9 112.7-44.5 161.3-23 76.4-76.3 109.1-153.7 96.2-30.8-5.1-60.9-19.4-89-34-121.7-63.6-244-87.9-374.5-10.3z m310.7-606.9c-3.1-103.1-91.7-187-195.3-184.9-105.4 2.2-186.3 86.9-184.1 192.8C178 420.8 259.1 497.9 368 496.1c104.7-1.7 190.3-88.8 187.2-190.6z m-82.8 252.3c92.9 74.1 194.2 155 300 239.4 28.9-32.8 51.1-57.9 75.7-85.8-86.1-106.6-167-206.7-225.3-278.8-52.9 44-98.9 82.3-150.4 125.2z" fill="#1296db" p-id="1851"></path></svg>