<?xml version="1.0" standalone="no"?><!DOCTYPE svg PUBLIC "-//W3C//DTD SVG 1.1//EN" "http://www.w3.org/Graphics/SVG/1.1/DTD/svg11.dtd"><svg t="1551518435506" class="icon" style="" viewBox="0 0 1024 1024" version="1.1" xmlns="http://www.w3.org/2000/svg" p-id="2075" xmlns:xlink="http://www.w3.org/1999/xlink" width="16" height="16"><defs><style type="text/css"></style></defs><path d="M160 128c38.4 0 64 25.6 64 64s-25.6 64-64 64-64-25.6-64-64 25.6-64 64-64m0-64c-70.4 0-128 57.6-128 128s57.6 128 128 128 128-57.6 128-128-57.6-128-128-128zM928 256h-512c-38.4 0-64-25.6-64-64s25.6-64 64-64h512c38.4 0 64 25.6 64 64s-25.6 64-64 64zM160 448c38.4 0 64 25.6 64 64s-25.6 64-64 64-64-25.6-64-64 25.6-64 64-64m0-64c-70.4 0-128 57.6-128 128s57.6 128 128 128 128-57.6 128-128-57.6-128-128-128zM928 576h-512c-38.4 0-64-25.6-64-64s25.6-64 64-64h512c38.4 0 64 25.6 64 64s-25.6 64-64 64z" fill="#4A78FF" p-id="2076"></path><path d="M160 768c38.4 0 64 25.6 64 64s-25.6 64-64 64-64-25.6-64-64 25.6-64 64-64m0-64c-70.4 0-128 57.6-128 128s57.6 128 128 128 128-57.6 128-128-57.6-128-128-128zM928 896h-512c-38.4 0-64-25.6-64-64s25.6-64 64-64h512c38.4 0 64 25.6 64 64s-25.6 64-64 64z" fill="#4A78FF" p-id="2077"></path></svg>