<?xml version="1.0" standalone="no"?><!DOCTYPE svg PUBLIC "-//W3C//DTD SVG 1.1//EN" "http://www.w3.org/Graphics/SVG/1.1/DTD/svg11.dtd"><svg t="1551518597531" class="icon" style="" viewBox="0 0 1024 1024" version="1.1" xmlns="http://www.w3.org/2000/svg" p-id="2942" xmlns:xlink="http://www.w3.org/1999/xlink" width="16" height="16"><defs><style type="text/css"></style></defs><path d="M512 3.1C230.9 3.1 3.1 230.9 3.1 512s227.8 508.9 508.9 508.9 508.9-227.8 508.9-508.9S793.1 3.1 512 3.1zM653.6 499c26.4 0 39.7 9.7 39.7 36.3 0 26.2-13.3 35.7-39.7 35.7l-93.6 1v37h93.6c26.4 0 39.7 9.2 39.7 35.8 0 26.2-13.3 35.2-39.7 35.2H558l-1 81.5c0 18.6-3.6 46.2-45 46.6-41.4 0.3-41-30.5-41-49v-79H370.5c-26.4 0-39.7-9-39.7-35.2 0-26.6 12.9-35.8 38.4-35.8H468l-1-38h-96.3c-26.4 0-39.7-9.5-39.7-35.7 0-26.6 12.9-36.3 38.4-36.3h56.2c-14.2-37-28.6-55-43.3-79.2-14.7-24.2-29.1-51.9-43.3-75.2-8-12.5-10.7-25.5-8.7-34.9 2.2-9.6 8-18.7 17.3-25.4 10.9-7.6 20.9-11.2 30.2-9.9 9.3 1.3 18.2 9.2 26.6 23.5l107.9 181.6c17.5-30 35.1-60 52.6-89.8S600 330 617.5 300c5.1-8.5 10-15 14.7-19 4.4-4 9.1-6.5 13.8-7.2s9.5 0 14.2 2.2 9.8 4.9 14.9 8.3c11.8 7.6 18.2 15.7 19.1 23.9 0.9 8.3-2.4 27.2-10 40.4L598.9 499h54.7z" fill="#F09D0E" p-id="2943"></path></svg>