<?xml version="1.0" standalone="no"?><!DOCTYPE svg PUBLIC "-//W3C//DTD SVG 1.1//EN" "http://www.w3.org/Graphics/SVG/1.1/DTD/svg11.dtd"><svg t="1551579993313" class="icon" style="" viewBox="0 0 1024 1024" version="1.1" xmlns="http://www.w3.org/2000/svg" p-id="2059" xmlns:xlink="http://www.w3.org/1999/xlink" width="16" height="16"><defs><style type="text/css"></style></defs><path d="M859.1 415.2c-19.9 0-36 16.1-36 36v372.3H198.6V199.1h372.3c19.9 0 36-16.1 36-36s-16.1-36-36-36H222.6c-53.1 0-96.1 43-96.1 96.1v576.5c0 53.1 43 96.1 96.1 96.1h576.5c53.1 0 96.1-43 96.1-96.1V451.3c-0.1-19.9-16.2-36.1-36.1-36.1zM410.1 612c18.8 18.8 49.2 18.8 67.9 0l373.7-373.7c18.8-18.8 18.8-49.2 0-67.9-18.8-18.8-49.2-18.8-67.9 0L410.1 544.1c-18.7 18.7-18.7 49.2 0 67.9z" fill="#8a8a8a" p-id="2060"></path></svg>