<?xml version="1.0" standalone="no"?><!DOCTYPE svg PUBLIC "-//W3C//DTD SVG 1.1//EN" "http://www.w3.org/Graphics/SVG/1.1/DTD/svg11.dtd"><svg t="1551580071289" class="icon" style="" viewBox="0 0 1024 1024" version="1.1" xmlns="http://www.w3.org/2000/svg" p-id="4510" xmlns:xlink="http://www.w3.org/1999/xlink" width="16" height="16"><defs><style type="text/css"></style></defs><path d="M512 26.512C259.088 26.512 54.068 243.868 54.068 512c0 268.128 205.02 485.488 457.932 485.488S969.932 780.128 969.932 512C970.06 243.868 765.04 26.512 512 26.512m-276.476 808.88c43.028-117.844 150.084-202.016 276.476-202.016 126.396 0 233.448 84.036 276.604 201.88-73.252 70.456-170.064 113.632-276.604 113.632-106.544 0.132-203.356-43.176-276.476-113.496m139.068-396.16c0-80.504 61.468-145.672 137.408-145.672 75.94 0 137.404 65.164 137.404 145.672S587.94 584.904 512 584.904c-75.936 0-137.408-65.304-137.408-145.672m448.588 358.82c-40.468-93.676-116.408-166.172-210.4-196.856 49.556-34.616 82.468-94.22 82.468-161.964 0-107.252-82.084-194.272-183.252-194.272s-183.252 87.024-183.252 194.272c0 67.744 32.78 127.348 82.468 162.1-93.996 30.684-169.932 103.18-210.396 196.856-62.876-76.708-101.036-176.492-101.036-286.052C99.784 270.752 284.316 75.116 512 75.116s412.22 195.636 412.22 437.02c0 109.428-38.292 209.208-101.04 285.916m0 0" fill="#707070" p-id="4511"></path></svg>