<?xml version="1.0" standalone="no"?><!DOCTYPE svg PUBLIC "-//W3C//DTD SVG 1.1//EN" "http://www.w3.org/Graphics/SVG/1.1/DTD/svg11.dtd"><svg t="1551520680375" class="icon" style="" viewBox="0 0 1024 1024" version="1.1" xmlns="http://www.w3.org/2000/svg" p-id="8920" xmlns:xlink="http://www.w3.org/1999/xlink" width="16" height="16"><defs><style type="text/css"></style></defs><path d="M512.284444 34.332444c-265.472 0-480.597333 215.125333-480.597333 480.455112 0 265.272889 215.125333 480.426667 480.597333 480.426666s480.597333-215.153778 480.597334-480.426666C992.711111 249.486222 777.557333 34.332444 512.284444 34.332444z m193.991112 564.565334h-228.124445c-1.763556 0-2.730667-1.450667-4.494222-1.621334-0.625778 0-0.967111 0.824889-1.763556 0.824889-5.603556-0.170667-9.784889-4.551111-14.734222-6.940444-4.181333-2.218667-8.988444-2.730667-12.174222-5.717333-2.588444-2.56-2.730667-6.599111-4.664889-9.784889-3.384889-5.774222-8.192-10.894222-8.192-17.834667 0-0.768 0.967111-1.223111 0.967111-2.048 0-0.938667-0.967111-1.621333-0.967111-2.56V241.009778c0-24.661333 17.948444-44.686222 39.879111-44.686222 22.129778 0 39.879111 20.024889 39.879111 44.686222v276.053333h194.332445c25.486222 0 46.136889 18.261333 46.136889 40.846222-0.113778 22.528-20.593778 40.988444-46.08 40.988445z m0 0" fill="#008FFE" p-id="8921"></path></svg>