<?xml version="1.0" standalone="no"?><!DOCTYPE svg PUBLIC "-//W3C//DTD SVG 1.1//EN" "http://www.w3.org/Graphics/SVG/1.1/DTD/svg11.dtd"><svg t="1551749113929" class="icon" style="" viewBox="0 0 1024 1024" version="1.1" xmlns="http://www.w3.org/2000/svg" p-id="4316" xmlns:xlink="http://www.w3.org/1999/xlink" width="16" height="16"><defs><style type="text/css"></style></defs><path d="M539.1 388.3l-20.2 15.4c-19.5 12.6-22.7 19.9-22.7 19.9l-0.3 18.9c9.5 11.6 19.9 19.9 24.7 23.4 10.1-34.1 36.1-72.5 36.1-72.5 5-20.2-17.6-5.1-17.6-5.1z m-44.2 125.2c0 7.6-26.5 16.4-26.5 16.4-15.4 0-12.3-22.7-12.3-22.7v-40.8c-0.4-2.1-0.2-3.2-0.2-3.2-9.3-13.9-23.2 2.3-23.2 2.3l-11.6 65v23.2c33.2 37.6 51.5 75.3 61.6 104.4l34-78.1v-67.3l-21.6-8.1-0.2 8.9z m429.9-175.9c-22.6-53.3-54.9-101.3-96-142.4-41.1-41.1-89.1-73.5-142.4-96C631.2 75.8 572.5 64 512 64S392.8 75.8 337.6 99.2c-53.3 22.6-101.3 54.9-142.4 96-41.1 41.1-73.5 89.1-96 142.4C75.8 392.8 64 451.5 64 512s11.8 119.2 35.2 174.4c22.6 53.3 54.9 101.3 96 142.4 41.1 41.1 89.1 73.5 142.4 96C392.8 948.2 451.5 960 512 960s119.2-11.8 174.4-35.2c53.3-22.6 101.3-54.9 142.4-96 41.1-41.1 73.5-89.1 96-142.4C948.2 631.2 960 572.5 960 512s-11.8-119.2-35.2-174.4zM671.4 201.8c28.5 0 51.7 23.1 51.7 51.7 0 28.5-23.1 51.7-51.7 51.7-28.5 0-51.7-23.1-51.7-51.7s23.2-51.7 51.7-51.7z m-218.9 24.5c26.3 0 47.6 21.3 47.6 47.6s-21.3 47.6-47.6 47.6-47.6-21.3-47.6-47.6 21.3-47.6 47.6-47.6z m346.2 290.6c-5 15.1-32.8 5-32.8 5L715.5 503c-42.9-22.7-40.3-44.1-40.3-44.1-10.1-15.1-25.2 2.5-25.2 2.5L637.4 532v25.2c75.6 85.7 80 171.4 80 171.4V803c0 20.2-27.1 18.9-27.1 18.9-37.8 0-32.8-20.2-32.8-20.2 0-80.7-13.9-110.9-13.9-110.9L592 633.2c-13.9-13.9-30.3 27.4-30.3 27.4l-73.1 140.2C476 826.1 448.9 822 448.9 822c-40.3-12.6-15.1-51.7-15.1-51.7l5.5-12.7c-2.1-58.4-12.4-80.9-12.4-80.9l-47.6-53.1c-12.8-12.8-27.9 25.3-27.9 25.3L284.1 778c-11.6 23.2-36.6 19.4-36.6 19.4-37.1-11.6-13.9-47.6-13.9-47.6L310 574.6V491c0-33.7 36.9-88.2 36.9-88.2 4.6-18.6-16.3-4.6-16.3-4.6L312 412.3c-18 11.6-20.9 18.3-20.9 18.3l-1.2 82.7c0 7-24.4 15.1-24.4 15.1-14.2 0-11.3-20.9-11.3-20.9V398.1c0-11.6 16-20.9 16-20.9l110-50.8c25.5-9.3 46.4 7 46.4 7 21.4 7.1 34 22.7 41.3 36.2 3.1-2.5 5.6-3.9 5.6-3.9l119.4-55.2c27.7-10.1 50.4 7.6 50.4 7.6 45.4 15.1 54.5 65.2 54.5 65.2-2.5 45.4 50.4 80.7 50.4 80.7l45.4 25.2c15.2 5 5.1 27.7 5.1 27.7z" p-id="4317" fill="#d4237a"></path></svg>