<?xml version="1.0" standalone="no"?><!DOCTYPE svg PUBLIC "-//W3C//DTD SVG 1.1//EN" "http://www.w3.org/Graphics/SVG/1.1/DTD/svg11.dtd"><svg t="1551750356456" class="icon" style="" viewBox="0 0 1024 1024" version="1.1" xmlns="http://www.w3.org/2000/svg" p-id="5872" xmlns:xlink="http://www.w3.org/1999/xlink" width="16" height="16"><defs><style type="text/css"></style></defs><path d="M511.99958 1023.99995a515.764358 515.764358 0 0 1-199.510365-40.062872A514.882361 514.882361 0 0 1 40.064082 711.512945a516.805355 516.805355 0 0 1 0-399.02173A514.882361 514.882361 0 0 1 312.490215 40.066082a516.805355 516.805355 0 0 1 399.02173 0A514.882361 514.882361 0 0 1 983.935078 312.492215a516.805355 516.805355 0 0 1 0 399.02173 514.882361 514.882361 0 0 1-272.424133 272.424133A515.764358 515.764358 0 0 1 511.99958 1023.99995z m0-969.510913a456.711546 456.711546 0 1 0 456.712546 456.711546A457.513543 457.513543 0 0 0 511.99958 54.489037z" fill="#8a8a8a" p-id="5873"></path><path d="M511.198583 552.86545a37.57888 37.57888 0 0 0-37.658881 37.65888 37.097882 37.097882 0 0 0 19.229939 32.850895v61.696804a19.229939 19.229939 0 1 0 38.459878 0v-61.696804a37.73888 37.73888 0 0 0 19.229939-32.850895 40.70387 40.70387 0 0 0-39.260875-37.65888z" fill="#8a8a8a" p-id="5874"></path><path d="M681.70404 439.80981H402.629928v-84.051733c0.640998-8.973971 9.53497-101.277678 110.252649-101.277677s108.007656 93.425703 108.569655 104.162668a24.037923 24.037923 0 0 0 48.073847-1.922994c-2.162993-52.241834-37.57788-150.314521-156.723502-150.314521-148.551527 0-158.166496 145.827536-158.247496 147.269531s0 0.880997 0 1.281996v84.85273h-12.258961a75.797759 75.797759 0 0 0-75.797758 75.797759v226.192279a75.797759 75.797759 0 0 0 75.797758 75.47776h339.40892a75.797759 75.797759 0 0 0 75.798758-75.797759V515.607569a75.797759 75.797759 0 0 0-75.798758-75.797759zM709.588951 735.710868a35.575887 35.575887 0 0 1-35.575887 35.574887H349.987096a35.575887 35.575887 0 0 1-35.574887-35.574887V521.696549a35.575887 35.575887 0 0 1 35.574887-35.574887h324.024968a35.575887 35.575887 0 0 1 35.575887 35.574887z" fill="#8a8a8a" p-id="5875"></path></svg>