<?xml version="1.0" standalone="no"?><!DOCTYPE svg PUBLIC "-//W3C//DTD SVG 1.1//EN" "http://www.w3.org/Graphics/SVG/1.1/DTD/svg11.dtd"><svg t="1552038936047" class="icon" style="" viewBox="0 0 1024 1024" version="1.1" xmlns="http://www.w3.org/2000/svg" p-id="5013" xmlns:xlink="http://www.w3.org/1999/xlink" width="32" height="32"><defs><style type="text/css"></style></defs><path d="M512 512m-512 0a512 512 0 1 0 1024 0 512 512 0 1 0-1024 0Z" fill="#F4B02B" p-id="5014"></path><path d="M511.899939 855.778147c-189.634818 0-343.908226-154.273408-343.908225-343.918232a18.48119 18.48119 0 1 1 36.962379 0c0 169.252477 137.693369 306.955852 306.945846 306.955852 117.361058 0 226.036858-68.411421 276.867635-174.265512a18.48119 18.48119 0 1 1 33.320174 16.009693c-56.954484 118.591804-178.698196 195.218199-310.187809 195.218199zM837.326975 530.321093a18.48119 18.48119 0 0 1-18.481189-18.48119c0-169.252477-137.703375-306.945846-306.955853-306.945846a307.125955 307.125955 0 0 0-269.453145 159.836776 18.48119 18.48119 0 1 1-32.419629-17.740741 344.098341 344.098341 0 0 1 301.88278-179.028396c189.634818 0 343.918232 154.273408 343.918232 343.908225A18.501202 18.501202 0 0 1 837.326975 530.321093z" fill="#FFFFFF" p-id="5015"></path><path d="M435.613751 579.961148h48.02908v-92.37593h-48.02908q-30.368387 0-30.348375-20.092166 0-19.641893 30.348375-19.661904h27.13643l-63.898689-87.893217q-7.694659-12.00727-10.006058-17.100354a27.016358 27.016358 0 0 1-2.351424-11.336864q0-11.106725 6.724071-17.840802t17.420548-6.724071q10.906604 0 17.630675 6.614005t15.699505 21.362934l69.041803 95.808009 61.757392-89.594247q3.422072-6.003635 7.264398-12.517579a96.988724 96.988724 0 0 1 7.484532-11.096718 29.387793 29.387793 0 0 1 9.075495-7.594599 26.606109 26.606109 0 0 1 12.917821-3.001817q10.68647 0 17.430554 6.503938a21.382947 21.382947 0 0 1 6.724071 15.929645 34.160683 34.160683 0 0 1-2.671617 13.668275 130.448983 130.448983 0 0 1-8.445114 15.609452l-61.547265 89.173992h27.136431q30.138248 0 30.138247 19.661904 0 20.082159-30.138247 20.092165h-48.339268v92.365925h48.289237q30.138248 0 30.138248 20.082159 0 19.661905-30.138248 19.661905h-48.289237v54.032715q0 43.376263-28.847466 43.376263-29.277727 0-29.277727-43.376263v-54.032715h-48.02908q-30.368387 0-30.348375-19.661905 0-20.062147 30.348375-20.012116z m-139.574508 21.312905a18.441166 18.441166 0 0 1-10.006059-3.001818l-109.596357-70.892923a18.48119 18.48119 0 1 1 20.082159-31.018781l109.586351 70.922941a18.48119 18.48119 0 0 1-10.066094 34.020599zM837.316969 530.321093a18.341105 18.341105 0 0 1-10.006058-3.001818l-109.606363-70.862905a18.48119 18.48119 0 1 1 20.072153-31.018781l109.586351 70.922942a18.471184 18.471184 0 0 1-10.006059 34.020598z" fill="#FBFBFB" p-id="5016"></path></svg>