<?xml version="1.0" standalone="no"?><!DOCTYPE svg PUBLIC "-//W3C//DTD SVG 1.1//EN" "http://www.w3.org/Graphics/SVG/1.1/DTD/svg11.dtd"><svg t="1552038792092" class="icon" style="" viewBox="0 0 1024 1024" version="1.1" xmlns="http://www.w3.org/2000/svg" p-id="2065" xmlns:xlink="http://www.w3.org/1999/xlink" width="32" height="32"><defs><style type="text/css"></style></defs><path d="M212.794422 1007.964337h0.643767-0.643767z" fill="#8C0000" p-id="2066"></path><path d="M514.370235 457.894268c-38.977196 0-98.262331-30.315597-128.753501-56.885638h-44.654055c44.302909 65.488712 102.18346 94.282677 173.407556 94.282677s134.605932-28.911013 178.440647-94.282677h-44.068812c-30.374121 26.511516-95.336115 56.885638-134.371835 56.885638z" fill="#5CADEE" p-id="2067"></path><path d="M1019.376579 976.887924a515.014002 515.014002 0 0 0-351.67263-377.891525c100.778876-54.369092 169.720524-158.01566 169.720524-279.160999C837.424473 143.209007 691.464823 0 511.444019 0S185.697662 143.150483 185.697662 319.8354c0 120.852718 69.11722 224.791907 170.013146 279.219524a515.014002 515.014002 0 0 0-351.731154 377.833A30.842316 30.842316 0 0 0 0 991.401955a32.598045 32.598045 0 0 0 65.196091 0h0.81934c44.829628-201.148083 227.191404-351.789678 445.662685-351.789679s400.774533 150.641596 445.604161 351.789679h0.81934a32.65657 32.65657 0 0 0 65.254615 0 30.198548 30.198548 0 0 0-3.979653-14.514031zM250.893753 319.8354c0-141.277705 116.697491-255.86832 260.784363-255.86832s260.784363 114.590616 260.784363 255.86832-117.048637 255.809796-260.784363 255.809796-260.784363-114.532091-260.784363-255.809796z" fill="#5CADEE" p-id="2068"></path></svg>